<svg xmlns="http://www.w3.org/2000/svg" viewBox="0 0 800 600" fill="none">
  <defs>
    <linearGradient id="g4" x1="0" y1="1" x2="1" y2="0">
      <stop offset="0%" stop-color="#0a0e0e"/>
      <stop offset="100%" stop-color="#16705a"/>
    </linearGradient>
    <radialGradient id="glow4" cx="70%" cy="30%" r="40%">
      <stop offset="0%" stop-color="#00e085" stop-opacity="0.08"/>
      <stop offset="100%" stop-color="#0a0e0e" stop-opacity="0"/>
    </radialGradient>
  </defs>
  <rect width="800" height="600" fill="url(#g4)"/>
  <rect width="800" height="600" fill="url(#glow4)"/>

  <!-- Equipment close-up — abstract gear composition -->
  <!-- Fencing mask front view -->
  <ellipse cx="280" cy="260" rx="120" ry="140" fill="#0d3d34" stroke="#1a6b5f" stroke-width="2" opacity="0.9"/>
  <!-- Mask mesh pattern -->
  <g stroke="#3fb89f" stroke-width="0.75" opacity="0.4">
    <line x1="165" y1="200" x2="395" y2="200"/>
    <line x1="162" y1="220" x2="398" y2="220"/>
    <line x1="160" y1="240" x2="400" y2="240"/>
    <line x1="160" y1="260" x2="400" y2="260"/>
    <line x1="160" y1="280" x2="400" y2="280"/>
    <line x1="162" y1="300" x2="398" y2="300"/>
    <line x1="165" y1="320" x2="395" y2="320"/>
    <line x1="240" y1="125" x2="240" y2="395"/>
    <line x1="260" y1="122" x2="260" y2="398"/>
    <line x1="280" y1="121" x2="280" y2="399"/>
    <line x1="300" y1="122" x2="300" y2="398"/>
    <line x1="320" y1="125" x2="320" y2="395"/>
  </g>
  <!-- Bib bottom -->
  <path d="M165 340 Q170 400 280 400 Q390 400 395 340 Z" fill="#0a0e0e" stroke="#1a6b5f" stroke-width="1.5" opacity="0.7"/>
  <!-- CE mark -->
  <text x="280" y="375" font-family="Plus Jakarta Sans, sans-serif" font-size="9" font-weight="500" letter-spacing="0.08em" fill="#3fb89f" opacity="0.5" text-anchor="middle">CE 350N</text>

  <!-- Glove beside mask -->
  <path d="M500 240 C490 220 480 200 490 180 C500 160 520 165 525 185 L530 240 Z" fill="#0d3d34" stroke="#2cc295" stroke-width="1.5" opacity="0.7"/>
  <path d="M525 185 C530 165 548 168 550 185 L548 240 Z" fill="#0d3d34" stroke="#2cc295" stroke-width="1" opacity="0.6"/>
  <path d="M550 185 C554 168 568 172 568 188 L565 240 Z" fill="#0d3d34" stroke="#2cc295" stroke-width="1" opacity="0.6"/>
  <path d="M568 188 C570 172 582 176 581 192 L578 240 Z" fill="#0d3d34" stroke="#2cc295" stroke-width="1" opacity="0.5"/>
  <path d="M578 192 C578 178 590 182 589 196 L585 240 Z" fill="#0d3d34" stroke="#2cc295" stroke-width="1" opacity="0.5"/>
  <path d="M490 240 L590 240 C595 270 580 300 540 310 C500 300 485 270 490 240 Z" fill="#0d3d34" stroke="#2cc295" stroke-width="1.5" opacity="0.7"/>

  <!-- Blade across bottom -->
  <line x1="50" y1="470" x2="750" y2="440" stroke="#00e085" stroke-width="2.5" stroke-linecap="round"/>
  <!-- Bell guard -->
  <circle cx="100" cy="468" r="22" fill="#0a0e0e" stroke="#00e085" stroke-width="2"/>
  <!-- Grip -->
  <rect x="50" y="460" width="50" height="16" rx="4" fill="#0d3d34" stroke="#1a6b5f" stroke-width="1"/>

  <text x="30" y="570" font-family="Plus Jakarta Sans, sans-serif" font-size="10" font-weight="500" letter-spacing="0.12em" fill="#3fb89f" opacity="0.4">EQUIPMENT · GEAR</text>
</svg>
