<?xml version="1.0" encoding="UTF-8"?>
<!DOCTYPE svg PUBLIC "-//W3C//DTD SVG 1.1//EN" "http://www.w3.org/Graphics/SVG/1.1/DTD/svg11.dtd">
<svg xmlns="http://www.w3.org/2000/svg" version="1.1" viewBox="0 0 720 638" style="shape-rendering:geometricPrecision; text-rendering:geometricPrecision; image-rendering:optimizeQuality; fill-rule:evenodd; clip-rule:evenodd" xmlns:xlink="http://www.w3.org/1999/xlink">
<g><path style="opacity:1" fill="transparent" d="M -0.5,-0.5 C 239.5,-0.5 479.5,-0.5 719.5,-0.5C 719.5,212.167 719.5,424.833 719.5,637.5C 479.5,637.5 239.5,637.5 -0.5,637.5C -0.5,424.833 -0.5,212.167 -0.5,-0.5 Z"/></g>
<g><path style="opacity:1" fill="#f1f7f6" d="M 342.5,33.5 C 355.837,33.3334 369.171,33.5001 382.5,34C 384.768,35.5577 385.934,37.7244 386,40.5C 386.667,43.8333 386.667,47.1667 386,50.5C 385.261,51.5742 384.261,52.2409 383,52.5C 379.846,50.0624 377.013,47.229 374.5,44C 372.888,43.2797 371.388,43.4464 370,44.5C 369.333,63.5 369.333,82.5 370,101.5C 373.921,104.522 374.421,108.022 371.5,112C 365.833,112.667 360.167,112.667 354.5,112C 350.449,108.675 350.616,105.509 355,102.5C 355.5,82.8362 355.667,63.1695 355.5,43.5C 350.416,43.7259 346.749,46.2259 344.5,51C 343.167,51.6667 341.833,51.6667 340.5,51C 339.365,46.2523 339.198,41.419 340,36.5C 341.045,35.6266 341.878,34.6266 342.5,33.5 Z"/></g>
<g><path style="opacity:1" fill="#f1f7f6" d="M 223.5,59.5 C 225.792,59.2436 227.959,59.5769 230,60.5C 230.171,65.5329 230.671,70.5329 231.5,75.5C 235.374,73.5323 238.04,74.5323 239.5,78.5C 238.546,83.4536 235.546,85.787 230.5,85.5C 230.5,95.8333 230.5,106.167 230.5,116.5C 233.448,116.223 236.281,116.556 239,117.5C 240.293,121.582 239.126,124.749 235.5,127C 231,128.167 226.5,129.333 222,130.5C 220.289,130.561 218.956,129.894 218,128.5C 217.5,115.838 217.333,103.171 217.5,90.5C 212.506,90.671 210.672,88.3376 212,83.5C 214.419,81.1496 216.752,78.8162 219,76.5C 220.082,70.619 221.582,64.9523 223.5,59.5 Z"/></g>
<g><path style="opacity:1" fill="#f1f7f6" d="M 292.5,61.5 C 303.656,60.8272 310.822,65.8272 314,76.5C 317.921,91.454 314.088,103.954 302.5,114C 288.687,120.01 279.52,115.843 275,101.5C 271.869,87.8474 275.036,76.0141 284.5,66C 286.87,63.7578 289.536,62.2578 292.5,61.5 Z"/></g>
<g><path style="opacity:1" fill="#f1f7f6" d="M 399.5,60.5 C 408.154,60.4088 414.654,64.0754 419,71.5C 420.27,83.0958 420.936,94.7624 421,106.5C 425.968,110.611 425.635,113.944 420,116.5C 416.924,115.712 413.758,115.212 410.5,115C 409.299,114.097 408.465,112.931 408,111.5C 398.418,118.275 391.084,116.275 386,105.5C 382.241,93.8593 385.741,85.3593 396.5,80C 399.817,79.5017 403.15,79.335 406.5,79.5C 407.615,74.15 405.615,71.3166 400.5,71C 397.79,75.5414 394.123,76.8747 389.5,75C 386.385,70.3562 387.052,66.3562 391.5,63C 394.251,62.0572 396.917,61.2239 399.5,60.5 Z"/></g>
<g><path style="opacity:1" fill="#f1f7f6" d="M 438.5,67.5 C 448.175,66.0902 455.675,69.4235 461,77.5C 462.023,81.3169 461.523,84.8169 459.5,88C 457.833,88.6667 456.167,88.6667 454.5,88C 452.57,85.7417 451.07,83.2417 450,80.5C 447.546,76.6643 445.212,76.6643 443,80.5C 440.474,90.4296 441.141,100.096 445,109.5C 449.659,112.584 453.492,111.75 456.5,107C 458.441,106.257 460.274,106.424 462,107.5C 462.941,114.442 460.108,119.275 453.5,122C 440.711,122.905 432.544,117.071 429,104.5C 426.452,94.2223 427.119,84.2223 431,74.5C 433.396,71.9334 435.896,69.6 438.5,67.5 Z"/></g>
<g><path style="opacity:1" fill="#f1f7f6" d="M 262.5,66.5 C 268.18,65.5214 271.18,67.8547 271.5,73.5C 272.05,80.7826 268.716,84.2826 261.5,84C 260.671,85.8161 259.837,87.6494 259,89.5C 258.333,96.8333 258.333,104.167 259,111.5C 263.685,114.956 263.518,118.289 258.5,121.5C 253.542,123.001 248.542,123.834 243.5,124C 242.196,123.196 241.529,122.029 241.5,120.5C 242.43,118.394 243.596,116.394 245,114.5C 245.667,105.167 245.667,95.8333 245,86.5C 239.065,81.9787 239.232,77.4787 245.5,73C 248.07,70.5407 251.07,69.5407 254.5,70C 255.893,71.1711 256.727,72.6711 257,74.5C 258.596,71.6305 260.43,68.9639 262.5,66.5 Z"/></g>
<g><path style="opacity:1" fill="transparent" d="M 289.5,101.5 C 289.33,100.178 289.663,99.0113 290.5,98C 288.781,94.0431 288.114,89.8764 288.5,85.5C 288.091,81.5011 288.925,77.8344 291,74.5C 295.081,70.103 298.081,70.7696 300,76.5C 301.94,84.4947 301.94,92.4947 300,100.5C 296.774,109.254 293.274,109.587 289.5,101.5 Z"/></g>
<g><path style="opacity:1" fill="#f1f7f6" d="M 478.5,75.5 C 493.106,76.9322 501.94,84.9322 505,99.5C 506.392,108.186 505.392,116.519 502,124.5C 495.465,132.074 487.631,133.574 478.5,129C 466.927,117.939 462.76,104.439 466,88.5C 468.388,82.2817 472.555,77.9483 478.5,75.5 Z"/></g>
<g><path style="opacity:1" fill="#f1f7f6" d="M 198.5,84.5 C 209.296,85.1438 213.462,90.8105 211,101.5C 209.368,107.93 205.868,113.097 200.5,117C 196.673,119.337 193.007,121.837 189.5,124.5C 190.769,128.633 193.436,130.466 197.5,130C 202.086,125.92 206.086,121.42 209.5,116.5C 212.257,118.088 213.09,120.421 212,123.5C 208.409,132.759 201.909,138.925 192.5,142C 186.938,143.581 182.438,142.081 179,137.5C 171.514,119.58 174.681,103.747 188.5,90C 191.767,87.8703 195.1,86.037 198.5,84.5 Z"/></g>
<g><path style="opacity:1" fill="transparent" d="M 482.5,85.5 C 487.149,86.6514 489.982,89.6514 491,94.5C 492.029,103.315 491.363,111.982 489,120.5C 487.512,122.82 485.679,122.987 483.5,121C 480.831,117.664 479.331,113.831 479,109.5C 477.591,101.049 478.758,93.0494 482.5,85.5 Z"/></g>
<g><path style="opacity:1" fill="#f1f7f6" d="M 511.5,86.5 C 514.978,86.1842 518.312,86.6842 521.5,88C 522.11,89.9472 522.943,91.7806 524,93.5C 529.375,90.5474 534.375,91.214 539,95.5C 540.706,97.7049 542.206,100.038 543.5,102.5C 551.033,97.7648 557.533,99.0981 563,106.5C 565.479,110.123 566.812,114.123 567,118.5C 567.022,129.658 567.689,140.658 569,151.5C 566.954,134.268 574.121,128.601 590.5,134.5C 590.283,125.432 586.117,122.766 578,126.5C 571.74,124.65 569.906,120.65 572.5,114.5C 574.021,113.063 575.855,112.396 578,112.5C 591.786,114.953 600.453,122.953 604,136.5C 604.333,146.5 604.667,156.5 605,166.5C 606.442,169.05 607.608,171.716 608.5,174.5C 608.038,176.291 606.871,177.291 605,177.5C 600.844,176.339 597.011,174.505 593.5,172C 592.929,170.795 592.262,169.628 591.5,168.5C 581.708,169.926 574.874,165.926 571,156.5C 569.192,158.396 567.025,158.896 564.5,158C 559.94,156.471 555.773,154.304 552,151.5C 553.041,144.356 553.541,137.022 553.5,129.5C 553.333,124.167 553.167,118.833 553,113.5C 551.776,110.527 549.776,109.86 547,111.5C 546.333,121.833 546.333,132.167 547,142.5C 548.757,144.88 548.923,147.38 547.5,150C 541.663,149.388 536.163,147.554 531,144.5C 531.967,137.51 532.467,130.343 532.5,123C 532.333,118.5 532.167,114 532,109.5C 532.339,104.326 530.173,102.326 525.5,103.5C 524.334,113.483 524.168,123.483 525,133.5C 529.344,139.666 527.844,142.166 520.5,141C 517.167,139.667 513.833,138.333 510.5,137C 507.837,133.439 508.003,129.939 511,126.5C 511.667,117.5 511.667,108.5 511,99.5C 509.624,96.9467 508.457,94.2801 507.5,91.5C 508.127,89.2127 509.46,87.546 511.5,86.5 Z"/></g>
<g><path style="opacity:1" fill="transparent" d="M 403.5,88.5 C 404.833,88.5 406.167,88.5 407.5,88.5C 407.977,93.742 407.144,98.742 405,103.5C 400.32,105.104 398.153,103.271 398.5,98C 398.761,93.9733 400.427,90.8066 403.5,88.5 Z"/></g>
<g><path style="opacity:1" fill="#f1f7f6" d="M 154.5,145.5 C 155.66,132.673 155.827,119.673 155,106.5C 154.209,107.745 153.709,109.078 153.5,110.5C 150.862,123.185 148.029,135.852 145,148.5C 142.205,154.114 138.539,155.114 134,151.5C 130.974,142.184 128.141,132.85 125.5,123.5C 125.631,122.624 125.298,121.957 124.5,121.5C 123.175,134.661 123.175,147.661 124.5,160.5C 128.254,161.772 129.42,164.439 128,168.5C 123.916,171.126 119.75,173.626 115.5,176C 114.216,176.684 113.049,176.517 112,175.5C 111.333,173.5 111.333,171.5 112,169.5C 114.223,167.277 115.556,164.611 116,161.5C 116.667,143.833 116.667,126.167 116,108.5C 114.796,107.141 113.296,106.141 111.5,105.5C 109.813,102.097 110.48,99.264 113.5,97C 118.62,94.94 123.62,92.6067 128.5,90C 129.944,89.2195 131.277,89.3861 132.5,90.5C 135.931,101.451 139.431,112.451 143,123.5C 146.361,108.438 150.028,93.4378 154,78.5C 158.933,75.232 164.1,72.3987 169.5,70C 172.225,69.1968 173.891,70.1968 174.5,73C 173.856,76.3045 172.356,79.1378 170,81.5C 169.167,100.842 169.334,120.175 170.5,139.5C 174.32,142.491 174.32,145.658 170.5,149C 165.313,151.76 159.98,154.26 154.5,156.5C 152.112,156.288 151.112,154.955 151.5,152.5C 152.025,149.971 153.025,147.638 154.5,145.5 Z"/></g>
<g><path style="opacity:1" fill="transparent" d="M 288.5,85.5 C 288.114,89.8764 288.781,94.0431 290.5,98C 289.663,99.0113 289.33,100.178 289.5,101.5C 287.572,96.2333 287.239,90.8999 288.5,85.5 Z"/></g>
<g><path style="opacity:1" fill="transparent" d="M 195.5,95.5 C 196.5,95.5 197.5,95.5 198.5,95.5C 199.229,103.375 196.229,109.375 189.5,113.5C 188.741,106.517 190.741,100.517 195.5,95.5 Z"/></g>
<g><path style="opacity:1" fill="transparent" d="M 154.5,145.5 C 154.828,133.655 154.495,121.988 153.5,110.5C 153.709,109.078 154.209,107.745 155,106.5C 155.827,119.673 155.66,132.673 154.5,145.5 Z"/></g>
<g><path style="opacity:1" fill="transparent" d="M 125.5,123.5 C 124.505,135.655 124.171,147.989 124.5,160.5C 123.175,147.661 123.175,134.661 124.5,121.5C 125.298,121.957 125.631,122.624 125.5,123.5 Z"/></g>
<g><path style="opacity:1" fill="transparent" d="M 585.5,143.5 C 590.131,142.822 592.131,144.822 591.5,149.5C 591.458,152.259 590.958,154.925 590,157.5C 588.688,159.658 587.022,159.991 585,158.5C 581.532,153.235 581.699,148.235 585.5,143.5 Z"/></g>
<g><path style="opacity:1" fill="transparent" d="M 337.5,168.5 C 315.164,168.333 292.831,168.5 270.5,169C 271.056,169.383 271.389,169.883 271.5,170.5C 269.952,170.179 269.285,169.179 269.5,167.5C 292.339,167.169 315.006,167.503 337.5,168.5 Z"/></g>
<g><path style="opacity:1" fill="transparent" d="M 257.5,169.5 C 250.159,169.334 242.826,169.5 235.5,170C 232.371,171.63 229.371,173.464 226.5,175.5C 226.414,174.504 226.748,173.671 227.5,173C 229.376,171.625 231.376,170.458 233.5,169.5C 241.657,168.18 249.657,168.18 257.5,169.5 Z"/></g>
<g><path style="opacity:1" fill="transparent" d="M 337.5,168.5 C 337.5,169.5 337.5,170.5 337.5,171.5C 326.726,170.189 315.726,169.522 304.5,169.5C 293.661,169.5 282.995,169.833 272.5,170.5C 272.167,170.5 271.833,170.5 271.5,170.5C 271.389,169.883 271.056,169.383 270.5,169C 292.831,168.5 315.164,168.333 337.5,168.5 Z"/></g>
<g><path style="opacity:1" fill="transparent" d="M 346.5,169.5 C 359.323,168.505 372.323,168.171 385.5,168.5C 385.737,169.791 385.404,170.791 384.5,171.5C 372.211,169.52 359.544,168.853 346.5,169.5 Z"/></g>
<g><path style="opacity:1" fill="transparent" d="M 488.5,169.5 C 458.493,169.167 428.493,169.5 398.5,170.5C 397.995,171.919 396.995,172.585 395.5,172.5C 396.028,171.279 396.695,170.113 397.5,169C 428.003,168.169 458.336,168.336 488.5,169.5 Z"/></g>
<g><path style="opacity:1" fill="#f1f7f6" d="M 257.5,169.5 C 284.472,185.655 311.472,201.822 338.5,218C 340.812,219.314 342.812,220.981 344.5,223C 336.55,234.715 327.883,246.049 318.5,257C 312.486,255.565 306.319,254.731 300,254.5C 293.411,254.626 286.911,255.459 280.5,257C 274.736,260.427 269.236,264.26 264,268.5C 263.493,269.996 263.993,271.163 265.5,272C 271.851,277.171 278.518,281.837 285.5,286C 287.712,288.043 289.712,290.209 291.5,292.5C 281.807,305.681 271.974,318.681 262,331.5C 257.16,339.622 259.327,343.455 268.5,343C 279.748,330.348 289.915,316.848 299,302.5C 300.019,301.313 301.186,300.313 302.5,299.5C 311.8,305.635 320.467,312.469 328.5,320C 329.944,320.781 331.277,320.614 332.5,319.5C 337.182,309.637 339.015,299.304 338,288.5C 336.426,281.856 334.092,275.522 331,269.5C 328.921,267.923 327.421,265.923 326.5,263.5C 332.44,255.051 338.607,246.718 345,238.5C 346.257,236.254 348.09,234.921 350.5,234.5C 350.747,239.567 351.413,244.567 352.5,249.5C 352.742,253.479 353.742,257.146 355.5,260.5C 357.295,269.474 358.961,278.474 360.5,287.5C 360.753,291.04 361.419,294.373 362.5,297.5C 362.5,298.5 362.5,299.5 362.5,300.5C 362.517,304.534 363.517,308.201 365.5,311.5C 365.808,313.924 365.474,316.257 364.5,318.5C 348.304,326.689 338.638,339.689 335.5,357.5C 334.857,362.784 333.857,368.117 332.5,373.5C 332.437,375.481 333.104,377.148 334.5,378.5C 334.291,379.086 333.957,379.586 333.5,380C 334.949,381.102 336.282,382.269 337.5,383.5C 347.678,408.258 366.012,418.425 392.5,414C 395.893,411.924 399.56,410.758 403.5,410.5C 403.471,406.36 402.804,402.36 401.5,398.5C 401.59,395.848 400.924,393.515 399.5,391.5C 397.464,382.685 395.131,374.018 392.5,365.5C 392.59,362.848 391.924,360.515 390.5,358.5C 388.365,351.624 386.698,344.624 385.5,337.5C 388.85,337.335 392.183,337.502 395.5,338C 403.927,340.278 412.261,342.778 420.5,345.5C 420.657,344.127 420.49,342.793 420,341.5C 409.696,326.598 395.53,318.265 377.5,316.5C 371.517,288.521 365.517,260.521 359.5,232.5C 360.002,231.479 360.668,231.312 361.5,232C 374.891,240.693 388.558,248.859 402.5,256.5C 401.947,260.719 400.78,264.719 399,268.5C 398.179,275.346 398.346,282.013 399.5,288.5C 399.671,292.853 401.005,296.853 403.5,300.5C 404.365,301.583 405.365,301.749 406.5,301C 411.815,290.859 417.481,281.026 423.5,271.5C 428.937,274.267 434.604,276.767 440.5,279C 441.152,281.09 441.319,283.257 441,285.5C 444.056,282.994 447.223,282.994 450.5,285.5C 451.825,291.599 451.492,297.599 449.5,303.5C 446.551,305.265 445.885,307.598 447.5,310.5C 447.5,310.833 447.5,311.167 447.5,311.5C 447.887,315.444 447.22,319.111 445.5,322.5C 443.359,323.755 442.693,325.422 443.5,327.5C 447.687,329.065 452.02,329.732 456.5,329.5C 455.217,322.841 455.217,316.174 456.5,309.5C 457.942,304.709 458.942,299.709 459.5,294.5C 461.635,292.631 464.302,291.964 467.5,292.5C 474.56,296.829 482.06,300.496 490,303.5C 490.833,303.167 491.667,302.833 492.5,302.5C 490.874,301.01 489.208,299.51 487.5,298C 482.236,296.035 477.236,293.535 472.5,290.5C 466.191,285.013 459.524,280.013 452.5,275.5C 452.063,273.926 451.063,272.759 449.5,272C 450.641,271.259 450.641,270.425 449.5,269.5C 451.523,267.147 453.523,264.814 455.5,262.5C 458.321,262.461 460.988,261.795 463.5,260.5C 458.54,257.706 453.874,258.04 449.5,261.5C 446.236,262.927 443.736,265.261 442,268.5C 440.055,267.137 437.888,266.303 435.5,266C 433.789,264.159 432.122,262.326 430.5,260.5C 434.807,251.219 439.641,242.219 445,233.5C 445.49,232.207 445.657,230.873 445.5,229.5C 441.183,229.083 437.183,229.75 433.5,231.5C 432.127,231.343 430.793,231.51 429.5,232C 427.713,233.582 425.713,234.749 423.5,235.5C 421.251,236.08 419.585,237.413 418.5,239.5C 413.904,242.71 409.737,246.376 406,250.5C 389.563,241.704 373.73,232.037 358.5,221.5C 370.476,204.863 382.81,188.529 395.5,172.5C 396.995,172.585 397.995,171.919 398.5,170.5C 428.493,169.5 458.493,169.167 488.5,169.5C 491.918,171.639 494.918,174.306 497.5,177.5C 498.566,179.519 499.732,181.519 501,183.5C 501.825,264.861 501.658,346.195 500.5,427.5C 497.626,431.852 493.626,435.018 488.5,437C 406.167,437.5 323.834,437.667 241.5,437.5C 231.242,435.657 224.909,429.657 222.5,419.5C 221.503,341.571 221.17,263.571 221.5,185.5C 222.301,183.958 222.634,182.292 222.5,180.5C 223.128,178.338 224.461,176.672 226.5,175.5C 229.371,173.464 232.371,171.63 235.5,170C 242.826,169.5 250.159,169.334 257.5,169.5 Z"/></g>
<g><path style="opacity:1" fill="#f1f7f6" d="M 337.5,171.5 C 339.497,181.797 341.497,192.13 343.5,202.5C 343.665,205.518 343.498,208.518 343,211.5C 342.105,208.233 340.272,207.566 337.5,209.5C 315.328,197.251 293.661,184.251 272.5,170.5C 282.995,169.833 293.661,169.5 304.5,169.5C 315.726,169.522 326.726,170.189 337.5,171.5 Z"/></g>
<g><path style="opacity:1" fill="#f1f7f6" d="M 346.5,169.5 C 359.544,168.853 372.211,169.52 384.5,171.5C 374.819,183.512 365.152,195.512 355.5,207.5C 354.914,207.291 354.414,206.957 354,206.5C 351.637,194.117 349.137,181.783 346.5,169.5 Z"/></g>
<g><path style="opacity:1" fill="transparent" d="M 343.5,202.5 C 344.903,205.909 345.57,209.575 345.5,213.5C 342.246,213.206 339.579,211.873 337.5,209.5C 340.272,207.566 342.105,208.233 343,211.5C 343.498,208.518 343.665,205.518 343.5,202.5 Z"/></g>
<g><path style="opacity:1" fill="transparent" d="M 423.5,235.5 C 422.415,237.587 420.749,238.92 418.5,239.5C 419.585,237.413 421.251,236.08 423.5,235.5 Z"/></g>
<g><path style="opacity:1" fill="transparent" d="M 222.5,180.5 C 222.634,182.292 222.301,183.958 221.5,185.5C 220.501,262.998 220.167,340.665 220.5,418.5C 219.334,340.668 219.168,262.668 220,184.5C 220.934,183.142 221.768,181.808 222.5,180.5 Z"/></g>
<g><path style="opacity:1" fill="transparent" d="M 221.5,185.5 C 221.17,263.571 221.503,341.571 222.5,419.5C 221.508,419.672 220.842,419.338 220.5,418.5C 220.167,340.665 220.501,262.998 221.5,185.5 Z"/></g>
<g><path style="opacity:1" fill="transparent" d="M 352.5,249.5 C 354.258,252.854 355.258,256.521 355.5,260.5C 353.742,257.146 352.742,253.479 352.5,249.5 Z"/></g>
<g><path style="opacity:1" fill="transparent" d="M 402.5,256.5 C 403.458,256.953 404.292,257.619 405,258.5C 405.984,256.205 406.817,256.539 407.5,259.5C 407.154,260.696 406.654,260.696 406,259.5C 405.376,261.754 404.043,263.421 402,264.5C 401.667,267.5 401.333,270.5 401,273.5C 400.667,272.833 400.333,272.167 400,271.5C 399.501,277.157 399.334,282.824 399.5,288.5C 398.346,282.013 398.179,275.346 399,268.5C 400.78,264.719 401.947,260.719 402.5,256.5 Z"/></g>
<g><path style="opacity:1" fill="transparent" d="M 455.5,262.5 C 456.263,261.732 457.263,261.232 458.5,261C 455.493,260.699 452.493,260.865 449.5,261.5C 453.874,258.04 458.54,257.706 463.5,260.5C 460.988,261.795 458.321,262.461 455.5,262.5 Z"/></g>
<g><path style="opacity:1" fill="transparent" d="M 455.5,262.5 C 453.523,264.814 451.523,267.147 449.5,269.5C 450.641,270.425 450.641,271.259 449.5,272C 451.063,272.759 452.063,273.926 452.5,275.5C 447.441,274.625 446.274,271.958 449,267.5C 450.777,265.21 452.944,263.543 455.5,262.5 Z"/></g>
<g><path style="opacity:1" fill="transparent" d="M 449.5,261.5 C 452.493,260.865 455.493,260.699 458.5,261C 457.263,261.232 456.263,261.732 455.5,262.5C 452.944,263.543 450.777,265.21 449,267.5C 446.274,271.958 447.441,274.625 452.5,275.5C 459.524,280.013 466.191,285.013 472.5,290.5C 471.448,292.256 469.781,292.923 467.5,292.5C 464.302,291.964 461.635,292.631 459.5,294.5C 458.883,294.611 458.383,294.944 458,295.5C 456.878,300.102 456.378,304.768 456.5,309.5C 455.217,316.174 455.217,322.841 456.5,329.5C 452.02,329.732 447.687,329.065 443.5,327.5C 442.693,325.422 443.359,323.755 445.5,322.5C 446.458,322.047 447.292,321.381 448,320.5C 448.805,317.304 448.638,314.304 447.5,311.5C 447.5,311.167 447.5,310.833 447.5,310.5C 447.4,307.892 448.067,305.558 449.5,303.5C 451.492,297.599 451.825,291.599 450.5,285.5C 447.223,282.994 444.056,282.994 441,285.5C 441.319,283.257 441.152,281.09 440.5,279C 434.604,276.767 428.937,274.267 423.5,271.5C 427.968,270.521 432.468,270.521 437,271.5C 440.011,270 439.511,269.166 435.5,269C 434.299,268.097 433.465,266.931 433,265.5C 432.683,267.301 432.016,267.634 431,266.5C 427.46,259.606 427.794,252.939 432,246.5C 432.492,247.549 432.326,248.549 431.5,249.5C 432.247,249.736 433.08,250.07 434,250.5C 433.961,247.654 434.794,244.82 436.5,242C 435.167,240.16 435.334,239.66 437,240.5C 437.44,238.924 438.273,237.59 439.5,236.5C 439.291,235.914 438.957,235.414 438.5,235C 439.624,234.751 440.624,234.251 441.5,233.5C 438.639,234.042 435.973,233.376 433.5,231.5C 437.183,229.75 441.183,229.083 445.5,229.5C 445.657,230.873 445.49,232.207 445,233.5C 439.641,242.219 434.807,251.219 430.5,260.5C 432.122,262.326 433.789,264.159 435.5,266C 437.888,266.303 440.055,267.137 442,268.5C 443.736,265.261 446.236,262.927 449.5,261.5 Z"/></g>
<g><path style="opacity:1" fill="transparent" d="M 360.5,287.5 C 362.175,290.507 362.841,293.84 362.5,297.5C 361.419,294.373 360.753,291.04 360.5,287.5 Z"/></g>
<g><path style="opacity:1" fill="transparent" d="M 472.5,290.5 C 477.236,293.535 482.236,296.035 487.5,298C 489.208,299.51 490.874,301.01 492.5,302.5C 491.667,302.833 490.833,303.167 490,303.5C 482.06,300.496 474.56,296.829 467.5,292.5C 469.781,292.923 471.448,292.256 472.5,290.5 Z"/></g>
<g><path style="opacity:1" fill="transparent" d="M 497.5,177.5 C 499.606,178.566 501.106,180.233 502,182.5C 502.5,263.833 502.667,345.166 502.5,426.5C 501.833,426.833 501.167,427.167 500.5,427.5C 501.658,346.195 501.825,264.861 501,183.5C 499.732,181.519 498.566,179.519 497.5,177.5 Z"/></g>
<g><path style="opacity:1" fill="transparent" d="M 362.5,300.5 C 364.483,303.799 365.483,307.466 365.5,311.5C 363.517,308.201 362.517,304.534 362.5,300.5 Z"/></g>
<g><path style="opacity:1" fill="transparent" d="M 449.5,303.5 C 448.067,305.558 447.4,307.892 447.5,310.5C 445.885,307.598 446.551,305.265 449.5,303.5 Z"/></g>
<g><path style="opacity:1" fill="transparent" d="M 459.5,294.5 C 458.942,299.709 457.942,304.709 456.5,309.5C 456.378,304.768 456.878,300.102 458,295.5C 458.383,294.944 458.883,294.611 459.5,294.5 Z"/></g>
<g><path style="opacity:1" fill="transparent" d="M 447.5,311.5 C 448.638,314.304 448.805,317.304 448,320.5C 447.292,321.381 446.458,322.047 445.5,322.5C 447.22,319.111 447.887,315.444 447.5,311.5 Z"/></g>
<g><path style="opacity:1" fill="#f1f7f6" d="M 375.5,352.5 C 375.41,355.152 376.076,357.485 377.5,359.5C 378.768,361.905 379.435,364.572 379.5,367.5C 379.41,370.152 380.076,372.485 381.5,374.5C 382.99,379.459 384.323,384.459 385.5,389.5C 385.41,392.152 386.076,394.485 387.5,396.5C 389.452,401.645 390.452,406.978 390.5,412.5C 372.446,413.557 358.612,406.557 349,391.5C 344.118,379.032 344.452,366.699 350,354.5C 352.128,351.37 354.628,348.537 357.5,346C 361.575,345.127 365.242,343.461 368.5,341C 370.134,340.506 371.801,340.34 373.5,340.5C 374.167,344.5 374.833,348.5 375.5,352.5 Z"/></g>
<g><path style="opacity:1" fill="transparent" d="M 375.5,352.5 C 376.924,354.515 377.59,356.848 377.5,359.5C 376.076,357.485 375.41,355.152 375.5,352.5 Z"/></g>
<g><path style="opacity:1" fill="transparent" d="M 390.5,358.5 C 391.924,360.515 392.59,362.848 392.5,365.5C 390.837,363.562 390.171,361.228 390.5,358.5 Z"/></g>
<g><path style="opacity:1" fill="transparent" d="M 335.5,357.5 C 335.135,366.268 335.801,374.935 337.5,383.5C 336.282,382.269 334.949,381.102 333.5,380C 333.957,379.586 334.291,379.086 334.5,378.5C 333.104,377.148 332.437,375.481 332.5,373.5C 333.857,368.117 334.857,362.784 335.5,357.5 Z"/></g>
<g><path style="opacity:1" fill="transparent" d="M 379.5,367.5 C 380.924,369.515 381.59,371.848 381.5,374.5C 380.076,372.485 379.41,370.152 379.5,367.5 Z"/></g>
<g><path style="opacity:1" fill="transparent" d="M 385.5,389.5 C 386.924,391.515 387.59,393.848 387.5,396.5C 386.076,394.485 385.41,392.152 385.5,389.5 Z"/></g>
<g><path style="opacity:1" fill="transparent" d="M 399.5,391.5 C 400.924,393.515 401.59,395.848 401.5,398.5C 400.076,396.485 399.41,394.152 399.5,391.5 Z"/></g>
<g><path style="opacity:1" fill="#f1f7f6" d="M 139.5,502.5 C 140.663,482.004 140.829,461.337 140,440.5C 138.959,439.529 138.126,438.529 137.5,437.5C 137.231,435.571 137.731,433.905 139,432.5C 150.92,440.543 162.754,448.71 174.5,457C 176.947,460.594 177.947,464.594 177.5,469C 177.333,471.5 177.167,474 177,476.5C 176.282,477.451 175.449,477.617 174.5,477C 171.819,472.646 169.319,468.146 167,463.5C 163.62,459.897 159.787,456.897 155.5,454.5C 154.335,461.811 154.169,469.144 155,476.5C 159.887,481.108 165.553,484.108 172,485.5C 173.633,490.479 173.8,495.479 172.5,500.5C 171.277,501.614 169.944,501.781 168.5,501C 165.638,495.305 161.305,491.138 155.5,488.5C 154.335,496.479 154.168,504.479 155,512.5C 158.25,515.101 159.084,518.267 157.5,522C 155.365,522.635 153.365,522.301 151.5,521C 146.379,517.547 141.546,513.714 137,509.5C 136.333,507.5 136.333,505.5 137,503.5C 137.671,502.748 138.504,502.414 139.5,502.5 Z"/></g>
<g><path style="opacity:1" fill="transparent" d="M 502.5,426.5 C 499.903,432.156 495.569,435.99 489.5,438C 406.666,438.832 323.999,438.666 241.5,437.5C 323.834,437.667 406.167,437.5 488.5,437C 493.626,435.018 497.626,431.852 500.5,427.5C 501.167,427.167 501.833,426.833 502.5,426.5 Z"/></g>
<g><path style="opacity:1" fill="#f1f7f6" d="M 552.5,441.5 C 554.144,441.286 555.644,441.62 557,442.5C 557.333,451.833 557.667,461.167 558,470.5C 561.263,464.889 565.929,461.222 572,459.5C 577.082,459.91 580.416,462.577 582,467.5C 585.672,488.955 579.172,506.455 562.5,520C 558.613,523.03 554.28,524.03 549.5,523C 547.263,520.97 545.763,518.47 545,515.5C 544.5,497.17 544.333,478.836 544.5,460.5C 543.178,460.67 542.011,460.337 541,459.5C 540.675,457.447 541.009,455.447 542,453.5C 546.104,449.905 549.604,445.905 552.5,441.5 Z"/></g>
<g><path style="opacity:1" fill="transparent" d="M 137.5,437.5 C 138.126,438.529 138.959,439.529 140,440.5C 140.829,461.337 140.663,482.004 139.5,502.5C 139.667,482.831 139.5,463.164 139,443.5C 138.15,441.99 137.317,440.49 136.5,439C 136.57,438.235 136.903,437.735 137.5,437.5 Z"/></g>
<g><path style="opacity:1" fill="transparent" d="M 563.5,473.5 C 566.388,473.22 567.888,474.553 568,477.5C 569.37,487.79 568.37,497.79 565,507.5C 563.194,510.684 561.194,511.017 559,508.5C 558.333,499.833 558.333,491.167 559,482.5C 559.986,479.194 561.486,476.194 563.5,473.5 Z"/></g>
<g><path style="opacity:1" fill="#f1f7f6" d="M 480.5,556.5 C 480.384,553.09 482.05,551.756 485.5,552.5C 484.905,532.012 484.239,511.679 483.5,491.5C 483.338,489.176 482.172,487.509 480,486.5C 479.333,485.167 479.333,483.833 480,482.5C 483.54,477.783 488.04,474.45 493.5,472.5C 494.442,472.608 495.275,472.941 496,473.5C 496.5,496.831 496.667,520.164 496.5,543.5C 498.124,543.36 499.29,544.027 500,545.5C 500.756,547.809 500.256,549.809 498.5,551.5C 494.171,553.225 489.838,555.058 485.5,557C 483.613,557.78 481.946,557.613 480.5,556.5 Z"/></g>
<g><path style="opacity:1" fill="#f1f7f6" d="M 456.5,484.5 C 463.703,483.627 470.203,485.293 476,489.5C 477.145,494.799 477.478,500.132 477,505.5C 476.131,508.394 474.298,509.561 471.5,509C 469.266,505.364 467.432,501.531 466,497.5C 460.109,493.077 455.109,494.077 451,500.5C 442.527,516.197 441.193,532.53 447,549.5C 449.451,555.089 453.617,556.922 459.5,555C 465.348,551.157 469.682,545.99 472.5,539.5C 476.68,537.837 478.347,539.337 477.5,544C 474.455,558.377 465.621,566.544 451,568.5C 437.957,566.454 430.623,558.787 429,545.5C 425.587,523.065 432.087,504.232 448.5,489C 451.633,488.14 454.3,486.64 456.5,484.5 Z"/></g>
<g><path style="opacity:1" fill="#f1f7f6" d="M 182.5,490.5 C 200.847,490.681 210.014,500.015 210,518.5C 208.27,523.452 204.77,526.119 199.5,526.5C 196.29,526.025 193.124,525.358 190,524.5C 189.5,524.833 189,525.167 188.5,525.5C 189.839,530.326 192.506,534.159 196.5,537C 200.503,537.835 203.836,536.669 206.5,533.5C 210.74,536.272 211.574,539.939 209,544.5C 201.547,549.821 194.381,549.321 187.5,543C 174.056,529.341 170.556,513.508 177,495.5C 178.812,493.7 180.645,492.033 182.5,490.5 Z"/></g>
<g><path style="opacity:1" fill="#f1f7f6" d="M 535.5,480.5 C 536.583,480.539 537.583,480.873 538.5,481.5C 539.333,495.154 539.833,508.821 540,522.5C 544.645,526.028 544.478,529.528 539.5,533C 535.866,536.005 531.866,536.839 527.5,535.5C 524.314,539.52 520.647,543.02 516.5,546C 510.505,547.673 506.672,545.507 505,539.5C 504.667,529.167 504.333,518.833 504,508.5C 501.793,507.003 501.126,505.003 502,502.5C 505.453,496.295 510.453,493.295 517,493.5C 517.223,506.532 517.723,519.532 518.5,532.5C 522.553,531.463 525.053,528.796 526,524.5C 526.667,515.5 526.667,506.5 526,497.5C 523.371,495.28 523.037,492.614 525,489.5C 528.292,486.127 531.792,483.127 535.5,480.5 Z"/></g>
<g><path style="opacity:1" fill="transparent" d="M 483.5,491.5 C 484.239,511.679 484.905,532.012 485.5,552.5C 482.05,551.756 480.384,553.09 480.5,556.5C 479.876,556.083 479.543,555.416 479.5,554.5C 480.457,551.72 481.624,549.053 483,546.5C 483.5,528.17 483.667,509.836 483.5,491.5 Z"/></g>
<g><path style="opacity:1" fill="#f1f7f6" d="M 297.5,500.5 C 302.742,499.271 306.575,500.937 309,505.5C 309.738,509.261 309.405,512.928 308,516.5C 302.845,520.959 298.512,520.293 295,514.5C 293.718,509.295 294.551,504.628 297.5,500.5 Z"/></g>
<g><path style="opacity:1" fill="transparent" d="M 191.5,500.5 C 196.258,502.566 198.092,506.232 197,511.5C 196.626,512.416 196.126,513.25 195.5,514C 192.854,514.497 190.187,514.664 187.5,514.5C 186.74,509.135 188.074,504.468 191.5,500.5 Z"/></g>
<g><path style="opacity:1" fill="#f1f7f6" d="M 216.5,503.5 C 222.345,502.039 226.345,504.039 228.5,509.5C 241.9,507.706 249.4,513.706 251,527.5C 251.035,540.615 251.869,553.615 253.5,566.5C 247,566.389 241.167,564.389 236,560.5C 237.514,547.68 237.848,534.68 237,521.5C 232.883,517.029 230.217,517.695 229,523.5C 228.333,532.167 228.333,540.833 229,549.5C 231.19,551.783 231.857,554.449 231,557.5C 224.624,558.214 218.791,556.547 213.5,552.5C 211.943,549.727 212.443,547.393 215,545.5C 215.667,535.167 215.667,524.833 215,514.5C 211.22,510.067 211.72,506.401 216.5,503.5 Z"/></g>
<g><path style="opacity:1" fill="#f1f7f6" d="M 265.5,518.5 C 274.128,516.693 281.295,519.026 287,525.5C 289.854,530.047 290.02,534.547 287.5,539C 285.833,539.667 284.167,539.667 282.5,539C 280.248,535.832 278.248,532.499 276.5,529C 272.277,528.213 270.111,530.047 270,534.5C 269.333,540.833 269.333,547.167 270,553.5C 271.18,558.014 273.846,561.347 278,563.5C 280.897,562.477 283.064,560.643 284.5,558C 286.441,557.257 288.274,557.424 290,558.5C 290.941,565.442 288.108,570.275 281.5,573C 268.697,573.887 260.53,568.053 257,555.5C 253.096,544.309 254.096,533.642 260,523.5C 261.73,521.598 263.563,519.931 265.5,518.5 Z"/></g>
<g><path style="opacity:1" fill="#f1f7f6" d="M 308.5,577.5 C 304.79,575.864 300.79,575.198 296.5,575.5C 294.11,575.315 293.11,573.982 293.5,571.5C 293.477,569.933 293.977,568.6 295,567.5C 295.667,556.5 295.667,545.5 295,534.5C 290.821,528.833 292.321,525.333 299.5,524C 302.167,523.333 304.833,523.333 307.5,524C 308.126,524.75 308.626,525.584 309,526.5C 309.333,540.167 309.667,553.833 310,567.5C 311.457,570.366 311.79,573.366 311,576.5C 310.329,577.252 309.496,577.586 308.5,577.5 Z"/></g>
<g><path style="opacity:1" fill="#f1f7f6" d="M 323.5,525.5 C 327.73,524.563 330.23,526.229 331,530.5C 338.89,524.612 345.89,525.612 352,533.5C 352.92,536.101 353.587,538.768 354,541.5C 354.333,551.5 354.667,561.5 355,571.5C 356.664,574.289 356.83,577.123 355.5,580C 350.5,580.667 345.5,580.667 340.5,580C 340,579.5 339.5,579 339,578.5C 340.509,566.014 340.843,553.347 340,540.5C 338.174,536.963 335.84,536.629 333,539.5C 331.434,549.773 331.101,560.107 332,570.5C 335.678,574.27 335.178,577.27 330.5,579.5C 325.849,578.884 321.182,578.218 316.5,577.5C 315.081,574.505 315.581,571.838 318,569.5C 318.667,559.5 318.667,549.5 318,539.5C 315.729,536.88 315.062,533.88 316,530.5C 318.479,528.686 320.979,527.019 323.5,525.5 Z"/></g>
<g><path style="opacity:1" fill="#f1f7f6" d="M 375.5,525.5 C 383.174,525.334 390.841,525.5 398.5,526C 401.796,530.726 400.796,534.226 395.5,536.5C 400.031,547.878 399.031,558.712 392.5,569C 398.373,572.939 400.54,578.439 399,585.5C 397.079,593.086 392.246,597.586 384.5,599C 379.167,599.667 373.833,599.667 368.5,599C 360.971,596.107 358.805,590.94 362,583.5C 364.707,579.965 368.207,578.798 372.5,580C 373.33,582.653 374.33,585.32 375.5,588C 385.432,589.206 388.432,585.206 384.5,576C 370.952,578.8 363.119,573.3 361,559.5C 357.471,544.256 362.304,532.923 375.5,525.5 Z"/></g>
<g><path style="opacity:1" fill="transparent" d="M 378.5,534.5 C 380.017,534.511 381.184,535.177 382,536.5C 385.333,545.833 385.333,555.167 382,564.5C 378.284,567.475 375.951,566.475 375,561.5C 374.333,554.833 374.333,548.167 375,541.5C 375.133,538.596 376.3,536.262 378.5,534.5 Z"/></g>
<g><path style="opacity:1" fill="transparent" d="M 296.5,575.5 C 300.79,575.198 304.79,575.864 308.5,577.5C 304.295,577.283 300.295,576.617 296.5,575.5 Z"/></g>
</svg>
